<svg width="100" height="91" viewBox="0 0 100 91" fill="none" xmlns="http://www.w3.org/2000/svg">
<g clip-path="url(#clip0)">
<path d="M9.6166 76.6595L8.73588 73.5081C7.17433 72.9077 5.57671 72.3876 3.95061 71.9504L3.83945 73.4151L3.38861 71.8015C1.37196 71.2784 3.8147e-06 71.0483 3.8147e-06 71.0483C3.8147e-06 71.0483 1.85273 77.4419 5.73996 82.3298L10.2689 83.0517L6.75051 83.512C7.23948 84.0458 7.76496 84.5511 8.32385 85.0251C13.978 89.7868 20.2758 91.9715 22.3902 89.9047C24.5046 87.8379 21.635 82.3024 15.9809 77.5412C14.228 76.065 12.0261 74.8804 9.82187 73.9478L9.6166 76.6595Z" fill="#F2F2F2"/>
<path d="M17.9923 73.2365L19.0338 70.1257C18.0392 68.8794 16.968 67.685 15.8251 66.5481L14.8955 67.7498L15.4288 66.157C14.0002 64.764 12.9569 63.9236 12.9569 63.9236C12.9569 63.9236 10.9007 70.2658 11.4431 76.273L14.9089 79.0149L11.6342 77.7588C11.7488 78.4452 11.9108 79.1244 12.1194 79.7923C14.2468 86.5203 18.3933 91.344 21.3807 90.5663C24.3682 89.7887 25.0655 83.7043 22.9381 76.9764C22.2786 74.8906 21.0685 72.8439 19.7129 71.012L17.9923 73.2365Z" fill="#F2F2F2"/>
<path d="M69.7795 21.558H69.2301V7.90327C69.2301 6.8654 69.0048 5.83769 68.567 4.87882C68.1293 3.91995 67.4876 3.0487 66.6788 2.31482C65.8699 1.58093 64.9096 0.998777 63.8527 0.6016C62.7959 0.204424 61.6631 0 60.5192 0H28.6326C26.3223 0 24.1066 0.832664 22.473 2.31482C20.8394 3.79697 19.9217 5.80719 19.9217 7.90327V82.8152C19.9217 83.8531 20.147 84.8808 20.5847 85.8397C21.0225 86.7985 21.6641 87.6698 22.473 88.4037C23.2819 89.1376 24.2422 89.7197 25.299 90.1169C26.3559 90.5141 27.4886 90.7185 28.6326 90.7185H60.5192C62.8295 90.7185 65.0451 89.8858 66.6787 88.4036C68.3123 86.9215 69.23 84.9113 69.23 82.8152V31.2776H69.7794L69.7795 21.558Z" fill="#E6E6E6"/>
<path d="M60.8707 2.05539H56.7088C56.9002 2.48118 56.9732 2.94315 56.9215 3.4006C56.8698 3.85804 56.6948 4.29692 56.4121 4.67857C56.1294 5.06022 55.7475 5.37293 55.3002 5.58914C54.8529 5.80535 54.3538 5.91843 53.847 5.91841H35.5795C35.0727 5.91839 34.5736 5.80528 34.1263 5.58905C33.679 5.37283 33.2972 5.06012 33.0145 4.67847C32.7318 4.29683 32.5569 3.85796 32.5052 3.40054C32.4535 2.94311 32.5265 2.48116 32.7179 2.05539H28.8304C27.1051 2.05539 25.4505 2.67721 24.2306 3.78407C23.0106 4.89093 22.3252 6.39215 22.3252 7.95748V82.7607C22.3252 84.326 23.0106 85.8272 24.2306 86.9341C25.4505 88.0409 27.1051 88.6627 28.8304 88.6627H60.8707C62.596 88.6627 64.2506 88.0409 65.4706 86.9341C66.6905 85.8272 67.3759 84.326 67.3759 82.7607V7.95735C67.3759 6.39204 66.6905 4.89086 65.4705 3.78403C64.2506 2.6772 62.5959 2.05539 60.8707 2.05539Z" fill="white"/>
<path d="M40.7678 31.8532C40.7677 31.3303 40.9194 30.8166 41.2076 30.3639C41.4959 29.9111 41.9105 29.5352 42.4097 29.274C41.9107 29.0125 41.3447 28.8748 40.7684 28.8748C40.1922 28.8747 39.626 29.0123 39.127 29.2737C38.6279 29.5351 38.2135 29.911 37.9253 30.3638C37.6372 30.8166 37.4855 31.3302 37.4855 31.853C37.4855 32.3758 37.6372 32.8894 37.9253 33.3422C38.2135 33.795 38.6279 34.1709 39.127 34.4323C39.626 34.6937 40.1922 34.8313 40.7684 34.8312C41.3447 34.8311 41.9107 34.6935 42.4097 34.432C41.9105 34.1708 41.4959 33.795 41.2077 33.3423C40.9194 32.8896 40.7677 32.376 40.7678 31.8532Z" fill="#CCCCCC"/>
<path d="M44.8944 31.8532C44.8943 31.3303 45.046 30.8166 45.3342 30.3639C45.6225 29.9111 46.0371 29.5352 46.5363 29.274C46.0373 29.0125 45.4713 28.8748 44.895 28.8748C44.3188 28.8747 43.7527 29.0123 43.2536 29.2737C42.7545 29.5351 42.3401 29.911 42.0519 30.3638C41.7638 30.8166 41.6121 31.3302 41.6121 31.853C41.6121 32.3758 41.7638 32.8894 42.0519 33.3422C42.3401 33.795 42.7545 34.1709 43.2536 34.4323C43.7527 34.6937 44.3188 34.8313 44.895 34.8312C45.4713 34.8311 46.0373 34.6935 46.5363 34.432C46.0371 34.1708 45.6225 33.795 45.3343 33.3423C45.046 32.8896 44.8943 32.376 44.8944 31.8532Z" fill="#CCCCCC"/>
<path d="M48.9273 34.8313C50.7402 34.8313 52.2098 33.4979 52.2098 31.8531C52.2098 30.2082 50.7402 28.8748 48.9273 28.8748C47.1144 28.8748 45.6447 30.2082 45.6447 31.8531C45.6447 33.4979 47.1144 34.8313 48.9273 34.8313Z" fill="#A55EEA"/>
<path d="M54.4132 41.1552H35.2818C35.0997 41.155 34.9251 41.0892 34.7963 40.9724C34.6675 40.8555 34.5951 40.6971 34.5948 40.5319V23.1742C34.5951 23.009 34.6675 22.8506 34.7963 22.7337C34.9251 22.6169 35.0997 22.5511 35.2818 22.5509H54.4132C54.5954 22.5511 54.77 22.6169 54.8988 22.7337C55.0276 22.8506 55.1 23.009 55.1002 23.1742V40.5319C55.1 40.6971 55.0276 40.8555 54.8988 40.9724C54.77 41.0892 54.5954 41.155 54.4132 41.1552ZM35.2818 22.8004C35.1726 22.8005 35.0678 22.8399 34.9905 22.91C34.9132 22.9801 34.8698 23.0752 34.8697 23.1743V40.532C34.8698 40.6311 34.9132 40.7262 34.9905 40.7963C35.0678 40.8664 35.1726 40.9058 35.2818 40.9059H54.4132C54.5225 40.9058 54.6273 40.8664 54.7046 40.7963C54.7818 40.7262 54.8253 40.6311 54.8254 40.532V23.1743C54.8253 23.0752 54.7818 22.9801 54.7046 22.91C54.6273 22.8399 54.5225 22.8005 54.4132 22.8004H35.2818Z" fill="#CCCCCC"/>
<path d="M58.685 54.4606H29.3432V54.71H58.685V54.4606Z" fill="#CCCCCC"/>
<path d="M30.2698 52.9039C30.7816 52.9039 31.1964 52.5275 31.1964 52.0632C31.1964 51.5989 30.7816 51.2225 30.2698 51.2225C29.758 51.2225 29.3432 51.5989 29.3432 52.0632C29.3432 52.5275 29.758 52.9039 30.2698 52.9039Z" fill="#A55EEA"/>
<path d="M58.685 62.8673H29.3432V63.1167H58.685V62.8673Z" fill="#CCCCCC"/>
<path d="M30.2698 61.3107C30.7816 61.3107 31.1964 60.9343 31.1964 60.47C31.1964 60.0057 30.7816 59.6293 30.2698 59.6293C29.758 59.6293 29.3432 60.0057 29.3432 60.47C29.3432 60.9343 29.758 61.3107 30.2698 61.3107Z" fill="#A55EEA"/>
<path d="M58.148 72.4405H48.8752C48.715 72.4404 48.5615 72.3826 48.4482 72.2798C48.3349 72.177 48.2712 72.0377 48.2711 71.8924V68.9436C48.2712 68.7983 48.3349 68.659 48.4482 68.5562C48.5615 68.4535 48.715 68.3957 48.8752 68.3955H58.148C58.3082 68.3957 58.4618 68.4535 58.575 68.5562C58.6883 68.659 58.752 68.7983 58.7522 68.9436V71.8924C58.752 72.0377 58.6883 72.177 58.575 72.2798C58.4618 72.3826 58.3082 72.4404 58.148 72.4405Z" fill="#A55EEA"/>
<path d="M33.2924 52.9039C33.8042 52.9039 34.2191 52.5275 34.2191 52.0632C34.2191 51.5989 33.8042 51.2225 33.2924 51.2225C32.7807 51.2225 32.3658 51.5989 32.3658 52.0632C32.3658 52.5275 32.7807 52.9039 33.2924 52.9039Z" fill="#A55EEA"/>
<path d="M36.3151 52.9039C36.8268 52.9039 37.2417 52.5275 37.2417 52.0632C37.2417 51.5989 36.8268 51.2225 36.3151 51.2225C35.8033 51.2225 35.3884 51.5989 35.3884 52.0632C35.3884 52.5275 35.8033 52.9039 36.3151 52.9039Z" fill="#A55EEA"/>
<path d="M33.2924 61.3107C33.8042 61.3107 34.2191 60.9343 34.2191 60.47C34.2191 60.0057 33.8042 59.6293 33.2924 59.6293C32.7807 59.6293 32.3658 60.0057 32.3658 60.47C32.3658 60.9343 32.7807 61.3107 33.2924 61.3107Z" fill="#A55EEA"/>
<path d="M36.3151 61.3107C36.8268 61.3107 37.2417 60.9343 37.2417 60.47C37.2417 60.0057 36.8268 59.6293 36.3151 59.6293C35.8033 59.6293 35.3884 60.0057 35.3884 60.47C35.3884 60.9343 35.8033 61.3107 36.3151 61.3107Z" fill="#A55EEA"/>
<path d="M99.6265 91H3.23287C3.02652 91 2.85937 90.9335 2.85937 90.8516C2.85937 90.7698 3.02652 90.7032 3.23287 90.7032H99.6265C99.8327 90.7032 100 90.7697 100 90.8516C100 90.9336 99.8327 91 99.6265 91Z" fill="#3F3D56"/>
<path d="M75.811 59.6203C75.8768 59.6477 75.9402 59.6797 76.0004 59.7162L82.0221 57.3844L82.237 55.9453L84.6431 55.9319L84.5009 59.2327L76.553 61.1397C76.5363 61.1898 76.5162 61.239 76.4929 61.2869C76.378 61.5093 76.1932 61.696 75.9618 61.8235C75.7303 61.951 75.4624 62.0136 75.1919 62.0034C74.9213 61.9933 74.6601 61.9108 74.4411 61.7664C74.222 61.622 74.0548 61.4221 73.9606 61.1917C73.8664 60.9614 73.8492 60.711 73.9113 60.4719C73.9735 60.2327 74.1121 60.0156 74.3098 59.8477C74.5075 59.6798 74.7554 59.5687 75.0225 59.5282C75.2896 59.4878 75.5639 59.5198 75.811 59.6203Z" fill="#FFB8B8"/>
<path d="M85.5181 89.5315H83.8722L83.0892 83.7714L85.5184 83.7715L85.5181 89.5315Z" fill="#FFB8B8"/>
<path d="M82.6964 89.1048H85.8708V90.9181H80.6978C80.6978 90.4372 80.9084 89.9759 81.2832 89.6359C81.658 89.2958 82.1664 89.1048 82.6964 89.1048Z" fill="#2F2E41"/>
<path d="M91.9194 89.1095L90.2814 89.256L88.8796 83.5933L91.2972 83.3773L91.9194 89.1095Z" fill="#FFB8B8"/>
<path d="M89.0653 88.9359L92.2244 88.6536L92.4203 90.4582L87.2722 90.9182C87.2465 90.6812 87.2724 90.442 87.3486 90.2141C87.4248 89.9862 87.5497 89.7742 87.7163 89.5901C87.8828 89.406 88.0876 89.2535 88.3191 89.1413C88.5505 89.029 88.8041 88.9592 89.0653 88.9359Z" fill="#2F2E41"/>
<path d="M85.9763 49.8359C87.7974 49.8359 89.2737 48.4965 89.2737 46.8442C89.2737 45.1919 87.7974 43.8524 85.9763 43.8524C84.1551 43.8524 82.6788 45.1919 82.6788 46.8442C82.6788 48.4965 84.1551 49.8359 85.9763 49.8359Z" fill="#FFB8B8"/>
<path d="M83.5043 88.3666C83.3629 88.367 83.2259 88.322 83.1174 88.2396C83.009 88.1572 82.9361 88.0427 82.9116 87.9163C82.0597 83.6255 79.2749 69.5957 79.2083 69.2071C79.2068 69.1981 79.2061 69.1891 79.2062 69.1801V68.134C79.2061 68.0959 79.2192 68.0587 79.2437 68.0278L79.6116 67.5603C79.6291 67.5378 79.652 67.5193 79.6786 67.5061C79.7052 67.4929 79.7348 67.4854 79.7651 67.4842C81.8625 67.395 88.7313 67.1335 89.0631 67.5096C89.3964 67.8877 89.2787 69.0331 89.2516 69.2588L89.253 69.2824L92.3389 87.1876C92.363 87.3304 92.3242 87.476 92.2309 87.5931C92.1376 87.7101 91.9972 87.7892 91.8401 87.813L89.9127 88.1011C89.7692 88.122 89.6221 88.0955 89.4983 88.0264C89.3745 87.9573 89.2821 87.8501 89.238 87.7244C88.6419 85.9961 86.643 80.1823 85.9502 77.9326C85.9459 77.9184 85.936 77.9061 85.9223 77.898C85.9087 77.8899 85.8923 77.8865 85.8762 77.8886C85.8601 77.8907 85.8453 77.898 85.8347 77.9092C85.8241 77.9204 85.8184 77.9348 85.8186 77.9495C85.8532 80.094 85.9368 85.5654 85.9657 87.4551L85.9688 87.6586C85.9701 87.7964 85.9143 87.9296 85.8126 88.0319C85.7109 88.1342 85.5705 88.1982 85.4193 88.2112L83.5607 88.3644C83.5418 88.3659 83.523 88.3666 83.5043 88.3666Z" fill="#2F2E41"/>
<path d="M83.8835 51.0123C83.3081 51.3226 82.9637 51.893 82.7662 52.4734C82.4003 53.5479 82.1801 54.6588 82.1104 55.7816L81.9016 59.1435L79.3165 68.0562C81.557 69.7762 82.8494 69.3853 85.8655 67.9784C88.8816 66.5715 89.2262 68.4475 89.2262 68.4475L89.8293 60.8639L90.6911 52.5771C90.4976 52.3657 90.2787 52.1748 90.0384 52.0077C89.2419 51.4458 88.3152 51.0552 87.3282 50.8654C86.3412 50.6756 85.3195 50.6915 84.3403 50.912L83.8835 51.0123Z" fill="#A55EEA"/>
<path d="M83.0439 61.4204C83.1134 61.4441 83.1808 61.4728 83.2453 61.5061L89.1994 58.8023L89.2982 57.3375L91.7542 57.1839L91.8859 60.523L83.9291 62.9103C83.8641 63.1631 83.7158 63.392 83.504 63.5665C83.2921 63.7411 83.0268 63.8529 82.7431 63.8873C82.4595 63.9216 82.1711 63.8768 81.9162 63.7588C81.6614 63.6408 81.4521 63.4552 81.3164 63.2266C81.1806 62.9981 81.1247 62.7375 81.1562 62.4795C81.1876 62.2214 81.3049 61.9782 81.4925 61.7821C81.68 61.586 81.9289 61.4464 82.206 61.3818C82.4831 61.3172 82.7754 61.3306 83.0439 61.4204Z" fill="#FFB8B8"/>
<path d="M90.648 52.615C92.1129 53.0841 92.3709 58.1662 92.3709 58.1662C90.6475 57.3062 88.5794 58.7135 88.5794 58.7135C88.5794 58.7135 88.1485 57.3844 87.6315 55.6644C87.4754 55.1806 87.4567 54.6688 87.5772 54.1767C87.6977 53.6846 87.9535 53.2282 88.3208 52.8499C88.3208 52.8499 89.183 52.1456 90.648 52.615Z" fill="#A55EEA"/>
<path d="M88.933 47.6354C88.5221 47.3371 87.9616 47.8792 87.9616 47.8792L87.6329 45.1953C87.6329 45.1953 85.5786 45.4186 84.2639 45.1208C82.9492 44.8231 82.7438 46.2019 82.7438 46.2019C82.676 45.6449 82.6623 45.0836 82.7028 44.5245C82.7849 43.8535 83.8531 43.1826 85.743 42.7352C87.6329 42.2879 88.6189 44.2263 88.6189 44.2263C89.9337 44.8226 89.3438 47.9336 88.933 47.6354Z" fill="#2F2E41"/>
</g>
<defs>
<clipPath id="clip0">
<rect width="100" height="91" fill="white"/>
</clipPath>
</defs>
</svg>
